<svg id="Lager_1" data-name="Lager 1" xmlns="http://www.w3.org/2000/svg" viewBox="0 0 1393.5 228.87"><defs><style>.cls-1{fill:#dcbeff;}.cls-2{fill:#00a;}</style></defs><title>cori_logo_rgb</title><rect class="cls-1" x="752.83" width="95.97" height="228.87"/><rect class="cls-1" x="347.83" width="95.97" height="228.87"/><rect class="cls-1" width="95.97" height="228.87"/><path class="cls-2" d="M789.43,579.5c0-.77,0-1.54,0-2.32V534.27q0-7.5-3-12a21.38,21.38,0,0,0-7.78-7.1,32.41,32.41,0,0,0-10.52-3.43,75.69,75.69,0,0,0-11.38-.88,56.93,56.93,0,0,0-12.32,1.36,33.13,33.13,0,0,0-11,4.55,25.8,25.8,0,0,0-8.07,8.45,28.36,28.36,0,0,0-3.6,13.24h20.46q.57-6.7,4-9.57t9.51-2.87a31.26,31.26,0,0,1,5.11.4A10.66,10.66,0,0,1,765,528a8.49,8.49,0,0,1,2.88,3.35,13.11,13.11,0,0,1,1.08,5.82c.09,2.34-.1,7.07-.1,7.07s-22.25,1.83-25.32,2.34a33.9,33.9,0,0,0-16.14,7.65,20.17,20.17,0,0,0-5.76,7.26A26.2,26.2,0,0,0,719.38,573a28.29,28.29,0,0,0,1.95,11,20.59,20.59,0,0,0,5.4,7.66,22,22,0,0,0,8.07,4.47,33.28,33.28,0,0,0,9.94,1.43,42.19,42.19,0,0,0,13.54-2.23c4.42-1.49,9.72-6,13-9.74,0,0,0,0,0,0v9.57h31.6V579.5Zm-20.49-15.88a48.33,48.33,0,0,1-.36,5.1,18.37,18.37,0,0,1-1.95,6.3,14.29,14.29,0,0,1-4.9,5.34q-3.32,2.24-9.36,2.23a23.29,23.29,0,0,1-4.75-.48,10.9,10.9,0,0,1-4-1.67,8.27,8.27,0,0,1-2.74-3.27V566.81a10,10,0,0,1,2.67-3.43,13,13,0,0,1,3.89-2.15,33.85,33.85,0,0,1,4.54-1.28q2.45-.48,4.9-.8c1.63-.21,10.58-.86,12.1-1Z" transform="translate(-263.48 -425.57)"/><path class="cls-2" d="M949.09,579.5c0-.77,0-1.54,0-2.32V534.27q0-7.5-3-12a21.38,21.38,0,0,0-7.78-7.1,32.41,32.41,0,0,0-10.52-3.43,75.69,75.69,0,0,0-11.38-.88A56.93,56.93,0,0,0,904,512.18a33.13,33.13,0,0,0-11,4.55,25.8,25.8,0,0,0-8.07,8.45,28.36,28.36,0,0,0-3.6,13.24h20.46q.57-6.7,4-9.57t9.51-2.87a31.26,31.26,0,0,1,5.11.4,10.66,10.66,0,0,1,4.18,1.6,8.49,8.49,0,0,1,2.88,3.35,13.11,13.11,0,0,1,1.08,5.82c.09,2.34-.1,7.07-.1,7.07s-22.25,1.83-25.32,2.34A33.9,33.9,0,0,0,887,554.21a20.17,20.17,0,0,0-5.76,7.26A26.2,26.2,0,0,0,879,573,28.29,28.29,0,0,0,881,584a20.59,20.59,0,0,0,5.4,7.66,22,22,0,0,0,8.07,4.47,33.28,33.28,0,0,0,9.94,1.43,42.19,42.19,0,0,0,13.54-2.23c4.42-1.49,9.72-6,13-9.74,0,0,0,0,0,0v9.57h31.6V579.5Zm-20.49-15.88a48.33,48.33,0,0,1-.36,5.1,18.37,18.37,0,0,1-1.95,6.3,14.29,14.29,0,0,1-4.9,5.34q-3.32,2.24-9.36,2.23a23.29,23.29,0,0,1-4.75-.48,10.9,10.9,0,0,1-4-1.67,8.27,8.27,0,0,1-2.74-3.27V566.81a10,10,0,0,1,2.67-3.43,13,13,0,0,1,3.89-2.15,33.85,33.85,0,0,1,4.54-1.28q2.45-.48,4.9-.8c1.63-.21,10.58-.86,12.1-1Z" transform="translate(-263.48 -425.57)"/><path class="cls-2" d="M616.32,485.91c16.66,0,33-.94,49.2.26,16.56,1.23,28.06,10.6,32.84,27a94.79,94.79,0,0,1,.18,53.18c-4.67,16.57-16.22,26.21-33,27.49-16.19,1.24-32.55.27-49.23.27Zm21,91.47c9.05-.52,17.56-.48,25.91-1.64,10.1-1.4,16.27-8.17,16.53-17.67.33-12.14.27-24.3,0-36.45a16.43,16.43,0,0,0-10.21-15.34c-10.42-4.73-21.35-3-32.2-2.94Z" transform="translate(-263.48 -425.57)"/><path class="cls-2" d="M864.1,528.27H844.53v50.44H864.1v16H824c-.09-1.84,0-66.52,0-66.52s-12.49.06-16.3.06v-15.7h16.11s-.06-19.24-.06-27.25h20.11v27.07H864.1Z" transform="translate(-263.48 -425.57)"/><path class="cls-2" d="M1044.71,568.38a17.18,17.18,0,0,0,5,6.23,21,21,0,0,0,7.3,3.54,32.54,32.54,0,0,0,8.68,1.15,42.32,42.32,0,0,0,6.51-.54,21.62,21.62,0,0,0,6.51-2.08,14.37,14.37,0,0,0,5.06-4.23,11.08,11.08,0,0,0,2-6.85,10,10,0,0,0-2.68-7.23,21.08,21.08,0,0,0-7-4.62,67.1,67.1,0,0,0-9.83-3.23q-5.5-1.38-11.13-3.08a93.82,93.82,0,0,1-11.28-3.77,38,38,0,0,1-9.83-5.77,26.8,26.8,0,0,1-7-8.85,28.26,28.26,0,0,1-2.68-12.84,30.22,30.22,0,0,1,3.4-14.69,32.08,32.08,0,0,1,8.89-10.38A37.72,37.72,0,0,1,1049,485a50,50,0,0,1,13.88-2,61.93,61.93,0,0,1,15.54,1.92,37.71,37.71,0,0,1,13.23,6.23,31,31,0,0,1,9.18,11q3.4,6.69,3.4,16.23h-22a20.46,20.46,0,0,0-2-8.15,13.32,13.32,0,0,0-4.41-5.08,18,18,0,0,0-6.29-2.62,36.48,36.48,0,0,0-7.73-.77,25.16,25.16,0,0,0-5.49.61,14.25,14.25,0,0,0-5,2.15,13,13,0,0,0-3.69,3.85,10.83,10.83,0,0,0-1.45,5.85,8.51,8.51,0,0,0,5.71,8.92,55.51,55.51,0,0,0,9.4,3.38q6,1.69,15.69,4.31,2.89.62,8,2.23a37.56,37.56,0,0,1,10.19,5.15,32,32,0,0,1,8.75,9.46q3.69,5.92,3.69,15.15a35.43,35.43,0,0,1-2.75,14,30.23,30.23,0,0,1-8.17,11.15,38.46,38.46,0,0,1-13.45,7.31,60.05,60.05,0,0,1-18.58,2.61,61.58,61.58,0,0,1-16.55-2.23,40.51,40.51,0,0,1-14.17-7,34,34,0,0,1-9.76-12.15,38.21,38.21,0,0,1-3.47-17.54h22A21.21,21.21,0,0,0,1044.71,568.38Z" transform="translate(-263.48 -425.57)"/><path class="cls-2" d="M1384,576.14q4.66,4.93,13.41,4.93a17.37,17.37,0,0,0,10.79-3.42q4.52-3.42,5.54-7.23H1432q-4.37,14.78-13.41,21.14t-21.86,6.36a39.87,39.87,0,0,1-16-3.1,33.3,33.3,0,0,1-12.1-8.82,40.42,40.42,0,0,1-7.65-13.67,54.06,54.06,0,0,1-2.7-17.48,51.8,51.8,0,0,1,2.77-17.16,40.94,40.94,0,0,1,7.87-13.75A37.16,37.16,0,0,1,1381,514.8a36.25,36.25,0,0,1,15.67-3.34,33.4,33.4,0,0,1,16.76,4.05,34.44,34.44,0,0,1,11.73,10.89,47.48,47.48,0,0,1,6.63,15.58c1.46,6.08,1.46,18.28,1.46,18.28h-54.37Q1379.35,571.22,1384,576.14Zm23.39-43.23q-3.72-4.45-11.3-4.45a16.77,16.77,0,0,0-8.24,1.83,16,16,0,0,0-5.25,4.53,17.15,17.15,0,0,0-2.77,5.72,27.84,27.84,0,0,0-.95,5.4h33.67Q1411.13,537.36,1407.41,532.91Z" transform="translate(-263.48 -425.57)"/><path class="cls-2" d="M1473,513.08v11.08h.3a30.75,30.75,0,0,1,10-9.81,25.67,25.67,0,0,1,13.39-3.48,29.13,29.13,0,0,1,13.24,3q6,3,9.1,10.6a33.69,33.69,0,0,1,9.25-9.5,23.41,23.41,0,0,1,13.83-4.11,38.36,38.36,0,0,1,11.24,1.58,22.24,22.24,0,0,1,8.88,5.06,23.37,23.37,0,0,1,5.77,9.1,39.24,39.24,0,0,1,2.07,13.53V594.9h-21V548.53q0-4.11-.3-7.75a17.38,17.38,0,0,0-1.63-6.33,10.26,10.26,0,0,0-3.92-4.27,13.43,13.43,0,0,0-7-1.58,11.92,11.92,0,0,0-11.47,6.57,20,20,0,0,0-2.07,6.65,54.18,54.18,0,0,0-.52,7.52V594.9h-21V549q0-3.64-.15-7.2a21.45,21.45,0,0,0-1.26-6.57,10,10,0,0,0-3.7-4.83q-2.59-1.82-7.62-1.82a14.81,14.81,0,0,0-3.92.71,12.74,12.74,0,0,0-4.73,2.69,15.68,15.68,0,0,0-3.92,5.7,24.52,24.52,0,0,0-1.63,9.73V594.9h-21V513.08Z" transform="translate(-263.48 -425.57)"/><path class="cls-2" d="M1608.68,575.09a13,13,0,0,0,3.54,4.36,14.43,14.43,0,0,0,5,2.5,21.08,21.08,0,0,0,5.85.81,19.71,19.71,0,0,0,4.55-.56,14.46,14.46,0,0,0,4.33-1.78,10.28,10.28,0,0,0,3.25-3.23,9.19,9.19,0,0,0,1.3-5.08q0-5.16-6.14-7.74a112.86,112.86,0,0,0-17.11-5.16q-4.48-1.13-8.74-2.66a28.55,28.55,0,0,1-7.58-4,18.84,18.84,0,0,1-5.34-6.29,19.47,19.47,0,0,1-2-9.28q0-8.06,2.82-13.23a22.06,22.06,0,0,1,7.44-8.15,30.5,30.5,0,0,1,10.4-4.19,57.6,57.6,0,0,1,11.84-1.21,53.26,53.26,0,0,1,11.77,1.29,29.32,29.32,0,0,1,10.18,4.36,24.86,24.86,0,0,1,7.44,8.15,29.71,29.71,0,0,1,3.54,12.82h-19.5q-.43-6.61-4.48-9a18.72,18.72,0,0,0-9.53-2.34,31.87,31.87,0,0,0-3.76.24,11.47,11.47,0,0,0-3.68,1,7.72,7.72,0,0,0-2.82,2.34,7.48,7.48,0,0,0,.87,9.11,15.16,15.16,0,0,0,5.27,3.14,60.42,60.42,0,0,0,7.44,2.18q4.19,1,8.52,2.1a80.34,80.34,0,0,1,8.74,2.74,27.78,27.78,0,0,1,7.58,4.27,20.11,20.11,0,0,1,5.34,6.61,21.3,21.3,0,0,1,2,9.76,29.12,29.12,0,0,1-3,13.79,25.4,25.4,0,0,1-7.73,9,29.8,29.8,0,0,1-10.9,4.76,57.27,57.27,0,0,1-12.49,1.37,55.65,55.65,0,0,1-12.71-1.45,31.59,31.59,0,0,1-11-4.84,26.44,26.44,0,0,1-7.94-9q-3.11-5.56-3.39-14h19.5A13.72,13.72,0,0,0,1608.68,575.09Z" transform="translate(-263.48 -425.57)"/><path class="cls-2" d="M1227.55,575.09a13,13,0,0,0,3.54,4.36,14.43,14.43,0,0,0,5,2.5,21.08,21.08,0,0,0,5.85.81,19.71,19.71,0,0,0,4.55-.56,14.46,14.46,0,0,0,4.33-1.78,10.28,10.28,0,0,0,3.25-3.23,9.19,9.19,0,0,0,1.3-5.08q0-5.16-6.14-7.74a112.86,112.86,0,0,0-17.11-5.16q-4.48-1.13-8.74-2.66a28.55,28.55,0,0,1-7.58-4,18.84,18.84,0,0,1-5.34-6.29,19.47,19.47,0,0,1-2-9.28q0-8.06,2.82-13.23a22.06,22.06,0,0,1,7.44-8.15,30.5,30.5,0,0,1,10.4-4.19,57.6,57.6,0,0,1,11.84-1.21,53.26,53.26,0,0,1,11.77,1.29,29.32,29.32,0,0,1,10.18,4.36,24.86,24.86,0,0,1,7.44,8.15,29.71,29.71,0,0,1,3.54,12.82h-19.5q-.43-6.61-4.48-9a18.72,18.72,0,0,0-9.53-2.34,31.87,31.87,0,0,0-3.76.24,11.47,11.47,0,0,0-3.68,1,7.72,7.72,0,0,0-2.82,2.34,7.48,7.48,0,0,0,.87,9.11,15.16,15.16,0,0,0,5.27,3.14,60.42,60.42,0,0,0,7.44,2.18q4.19,1,8.52,2.1a80.34,80.34,0,0,1,8.74,2.74,27.78,27.78,0,0,1,7.58,4.27,20.11,20.11,0,0,1,5.34,6.61,21.3,21.3,0,0,1,2,9.76,29.12,29.12,0,0,1-3,13.79,25.4,25.4,0,0,1-7.73,9,29.8,29.8,0,0,1-10.9,4.76,57.27,57.27,0,0,1-12.49,1.37,55.65,55.65,0,0,1-12.71-1.45,31.59,31.59,0,0,1-11-4.84,26.44,26.44,0,0,1-7.94-9q-3.11-5.56-3.39-14h19.5A13.72,13.72,0,0,0,1227.55,575.09Z" transform="translate(-263.48 -425.57)"/><path class="cls-2" d="M1344.23,528.56h-19.57V579h19.57v16h-40.08c-.09-1.84,0-66.52,0-66.52s-12.49.06-16.3.06v-15.7h16.11s-.06-19.24-.06-27.25H1324v27.07h20.23Z" transform="translate(-263.48 -425.57)"/><polygon class="cls-2" points="879.09 179.65 859.6 179.65 859.6 195.64 894.93 195.64 935.46 86.89 912.44 86.89 894.75 142.32 894.44 142.32 876.12 86.89 852.47 86.89 882.49 167.32 879.09 179.65"/><path class="cls-2" d="M489.12,595.13H469V513.07h45.38v15.57H489.12Z" transform="translate(-263.48 -425.57)"/><path class="cls-2" d="M531.42,513.19h19.65V595H531.42Z" transform="translate(-263.48 -425.57)"/><path class="cls-2" d="M530.93,503.2V485.56h20.27V503.2Z" transform="translate(-263.48 -425.57)"/><path class="cls-2" d="M335.08,561.59a21.16,21.16,0,0,1-6.47,12.18c-3.53,3.79-8.24,5.71-14.15,5.72h-3.71a21.24,21.24,0,0,1-21.18-21.18V522.26a21.24,21.24,0,0,1,21.18-21.18h3.43a21.26,21.26,0,0,1,20.75,17c0,.12.06.23.09.35h20.53a38.89,38.89,0,0,0-4.33-12.87A40.13,40.13,0,0,0,342,493.2a39.21,39.21,0,0,0-12.63-7.59,43.33,43.33,0,0,0-49.64,14.11,57,57,0,0,0-9.27,18.33,77.32,77.32,0,0,0-3.22,22.78,74.69,74.69,0,0,0,3.22,22.32,55.39,55.39,0,0,0,9.27,18,43,43,0,0,0,14.85,12,43.92,43.92,0,0,0,19.82,4.37,42,42,0,0,0,16.26-3.07,37.15,37.15,0,0,0,12.9-8.9,44.8,44.8,0,0,0,8.87-14.11,57.36,57.36,0,0,0,3.23-9.93Z" transform="translate(-263.48 -425.57)"/><path class="cls-2" d="M446.11,536.27a39.5,39.5,0,0,0-7.85-13.75,35,35,0,0,0-12.28-8.8,40,40,0,0,0-16.05-3.12,39.44,39.44,0,0,0-16,3.12,35.1,35.1,0,0,0-12.2,8.8,39.43,39.43,0,0,0-7.85,13.75,55.36,55.36,0,0,0-2.76,18,54.61,54.61,0,0,0,2.76,17.91,39.48,39.48,0,0,0,7.85,13.67,34.18,34.18,0,0,0,12.2,8.72,40.37,40.37,0,0,0,16,3,40.91,40.91,0,0,0,16.05-3,34,34,0,0,0,12.28-8.72,39.54,39.54,0,0,0,7.85-13.67,54.68,54.68,0,0,0,2.76-17.91A55.42,55.42,0,0,0,446.11,536.27Zm-18.67,29.3a15.7,15.7,0,0,1-15.66,15.66H408.4a15.7,15.7,0,0,1-15.66-15.66v-1.13c0-.17-.08-.33-.11-.51V544.51c0-.18.08-.34.11-.51v-1.36A15.7,15.7,0,0,1,408.4,527h3.37a15.7,15.7,0,0,1,15.66,15.66Z" transform="translate(-263.48 -425.57)"/></svg>